<svg clip-rule="evenodd" fill-rule="evenodd" stroke-linejoin="round" stroke-miterlimit="2" viewBox="0 0 510 510" xmlns="http://www.w3.org/2000/svg"><g><g><path d="m146.828 42.534c-57.553 105.299-194.89 263.181-94.871 363.199 52.183 52.184 137.559 52.184 189.698 0 101.216-101.172-43.975-270.147-94.827-363.199z" fill="#f76c82"/><path d="m171.76 404.128c-4.478.85-9.203.791-13.921-.334-17.908-4.267-28.982-22.269-24.715-40.177 4.267-17.907 22.269-28.982 40.177-24.715 4.718 1.125 8.962 3.202 12.576 5.981-12.519 2.376-23.113 11.859-26.256 25.048s2.037 26.43 12.139 34.197z" fill="#eb5463"/><path d="m362.556 375.507 22.934-27.227-52.548-44.264-22.934 27.226z" fill="#cad0d7"/><path d="m224.676 118.326c70.089-5.997 131.776 45.965 137.773 116.053 5.998 70.088-45.964 131.776-116.053 137.773-70.088 5.997-131.775-45.965-137.773-116.053-5.997-70.088 45.965-131.776 116.053-137.773z" fill="#a9b0bb"/><path d="m351.576 360.089 17.521-20.8c5.772-6.876 16.142-7.764 23.02-1.97l95.601 80.53c6.878 5.793 7.763 16.141 1.969 23.019l-17.521 20.8c-5.793 6.878-16.163 7.766-23.019 1.97l-95.601-80.529c-6.878-5.794-7.763-16.142-1.97-23.02z" fill="#d5a889"/><path d="m243.534 338.707c-51.473 4.404-97.059-33.975-101.465-85.47-4.405-51.473 33.996-97.061 85.469-101.466 51.496-4.406 97.061 33.997 101.466 85.47 4.406 51.495-33.974 97.059-85.47 101.466z" fill="#f4f6f8"/><path d="m287.533 239.028c-3.059 3.663-6.921 6.754-11.486 8.979-17.323 8.443-38.243 1.233-46.686-16.09-8.443-17.324-1.234-38.243 16.09-46.687 4.564-2.224 9.378-3.362 14.148-3.515-8.551 10.239-10.823 24.949-4.605 37.708 6.219 12.759 19.206 20.032 32.539 19.605z" fill="#f76c82"/><path d="m244.964 292.079c-2.203 3.91-5.246 7.427-9.086 10.264-14.576 10.767-35.151 7.674-45.918-6.901-10.767-14.576-7.674-35.151 6.902-45.918 3.84-2.837 8.097-4.711 12.481-5.667-6.157 10.928-5.745 24.918 2.185 35.653 7.93 10.736 21.18 15.242 33.436 12.569z" fill="#f76c82"/><path d="m107.837 319.775c-2.272 4.033-5.412 7.663-9.374 10.589-15.039 11.109-36.267 7.918-47.375-7.12-11.109-15.038-7.918-36.267 7.12-47.375 3.963-2.927 8.354-4.861 12.878-5.848-6.353 11.276-5.928 25.71 2.254 36.786s21.853 15.725 34.497 12.968z" fill="#eb5463"/></g><path d="m272.241 374.54c-5.919 12.727-14.31 24.841-25.62 36.146-54.86 54.906-144.691 54.908-199.598.001-42.016-42.016-44.571-93.676-28.136-147.715 23.607-77.616 87.089-160.257 121.815-223.791 1.227-2.246 3.583-3.643 6.142-3.643 2.56 0 4.915 1.397 6.143 3.643 11.959 21.884 29.168 47.982 47.138 76.415 7.714-2.098 15.723-3.535 23.971-4.241 73.94-6.327 139.017 48.491 145.344 122.431 2.4 28.043-3.996 54.81-16.894 77.582l20.086 16.919c7.804-3.226 17.13-2.114 24.011 3.682l95.601 80.53c9.825 8.276 11.09 23.057 2.813 32.882l-17.521 20.801c-8.278 9.827-23.096 11.087-32.883 2.814l-95.601-80.53c-6.563-5.529-9.306-13.96-7.937-21.878l-20.522-17.287c-13.968 11.437-30.337 20.148-48.352 25.239zm-85.814-254.41c-14.582-23.02-28.557-44.469-39.562-63.344-35.253 61.192-92.568 137.874-114.583 210.26-14.864 48.872-13.358 95.743 24.641 133.741 49.46 49.46 130.378 49.462 179.796.002l.003-.003c7.163-7.159 13.021-14.675 17.703-22.495-2.449.346-4.921.626-7.416.839-27.665 2.368-54.09-3.825-76.661-16.377-1.784 2.596-3.128 5.558-3.901 8.804-2.484 10.424 1.612 20.887 9.596 27.025 2.186 1.681 3.182 4.489 2.543 7.172-.64 2.683-2.795 4.74-5.504 5.255-5.421 1.029-11.139.959-16.85-.402-21.665-5.162-35.064-26.943-29.901-48.608 2.151-9.03 7.189-16.625 13.902-22.038-21.474-21.587-35.769-50.553-38.568-83.261-5.193-60.689 30.807-115.408 84.762-136.57zm-72.475 203.085c-2.743 4.868-6.531 9.251-11.314 12.784-18.146 13.404-43.76 9.554-57.164-8.592s-9.555-43.761 8.591-57.165c4.783-3.533 10.086-5.865 15.546-7.056 2.694-.588 5.483.462 7.122 2.68 1.638 2.219 1.822 5.192.468 7.595-5.041 8.947-4.707 20.401 1.786 29.191 6.492 8.789 17.341 12.475 27.375 10.287 2.695-.587 5.483.462 7.122 2.68 1.639 2.219 1.822 5.193.468 7.596zm-22.404 3.321c-9.223-2.09-17.768-7.37-23.822-15.566s-8.589-17.916-7.876-27.346c-9.714 9.2-11.265 24.432-3.116 35.465 8.15 11.032 23.165 14.028 34.814 7.447zm265.398 38.067c-3.311 3.931-2.805 9.844 1.126 13.156l95.605 80.533.005.004c3.916 3.31 9.838 2.795 13.147-1.134l17.521-20.8c3.311-3.931 2.805-9.845-1.126-13.156l-95.601-80.529c-3.928-3.309-9.851-2.811-13.152 1.121zm-131.657-239.299c-66.236 5.668-115.343 63.965-109.675 130.202 5.668 66.236 63.965 115.343 130.202 109.675 66.236-5.668 115.343-63.965 109.675-130.201-5.668-66.237-63.965-115.344-130.202-109.676zm18.858 220.381c-55.314 4.733-104.301-36.509-109.036-91.847-4.734-55.315 36.533-104.304 91.847-109.037 55.338-4.736 104.303 36.533 109.037 91.847 4.735 55.338-36.51 104.302-91.848 109.037zm-1.193-13.949c47.653-4.078 83.169-46.242 79.092-93.894-4.076-47.633-46.242-83.17-93.895-79.092-47.632 4.076-83.167 46.262-79.091 93.894 4.077 47.653 46.261 83.168 93.894 79.092zm8.125-36.217c-2.673 4.745-6.365 9.015-11.026 12.458-17.683 13.063-42.645 9.311-55.707-8.372-13.062-17.684-9.311-42.645 8.373-55.707 4.661-3.443 9.828-5.716 15.149-6.877 2.694-.587 5.483.462 7.122 2.68 1.638 2.219 1.822 5.193.468 7.596-4.846 8.6-4.524 19.61 1.716 28.058 6.241 8.448 16.67 11.992 26.315 9.889 2.694-.588 5.483.462 7.121 2.68 1.639 2.218 1.822 5.192.469 7.595zm-22.499 3.196c-8.777-2.12-16.887-7.217-22.667-15.042-5.779-7.824-8.268-17.074-7.713-26.087-8.977 8.878-10.313 23.249-2.593 33.7s21.849 13.399 32.973 7.429zm64.342-55.196c-3.673 4.399-8.31 8.112-13.791 10.784-20.797 10.136-45.91 1.481-56.046-19.316-10.136-20.796-1.481-45.909 19.315-56.045 5.482-2.672 11.263-4.036 16.991-4.22 2.757-.088 5.308 1.451 6.516 3.93 1.209 2.479.849 5.437-.919 7.554-6.838 8.188-8.658 19.951-3.685 30.154 4.973 10.204 15.36 16.017 26.022 15.676 2.757-.088 5.308 1.45 6.517 3.929 1.208 2.48.848 5.437-.92 7.554zm-22.572-.674c-9.129-3.779-16.967-10.779-21.632-20.351s-5.35-20.058-2.702-29.577c-12.009 7.454-16.672 22.958-10.346 35.937 6.325 12.979 21.41 18.857 34.68 13.991zm-111.876 112.472c-2.621-1.837-5.175-3.767-7.657-5.784-5.272 3.566-9.278 9.037-10.868 15.711-3.095 12.991 4.028 26.045 16.166 30.705-4.193-8.238-5.596-17.949-3.287-27.637 1.136-4.769 3.078-9.137 5.646-12.995zm186.478-32.042c-4.19 5.868-8.844 11.393-13.915 16.519l16.672 14.044 13.915-16.519z"/></g></svg>