<svg clip-rule="evenodd" fill-rule="evenodd" stroke-linejoin="round" stroke-miterlimit="2" viewBox="0 0 510 510" xmlns="http://www.w3.org/2000/svg" xmlns:xlink="http://www.w3.org/1999/xlink"><linearGradient id="_Linear1" gradientTransform="matrix(-510 510 -65.813 -65.813 510 0)" gradientUnits="userSpaceOnUse" x1="0" x2="1" y1="0" y2="0"><stop offset="0" stop-color="#e93528"/><stop offset="1" stop-color="#f8bc16"/></linearGradient><path d="m272.225 374.536c-5.919 12.727-14.31 24.841-25.62 36.146-54.861 54.906-144.691 54.908-199.598.001-42.016-42.016-44.571-93.676-28.136-147.715 23.606-77.616 87.089-160.257 121.815-223.791 1.227-2.246 3.583-3.643 6.142-3.643 2.56 0 4.915 1.397 6.143 3.643 11.959 21.884 29.167 47.982 47.138 76.415 7.713-2.098 15.723-3.535 23.971-4.24 73.94-6.327 139.017 48.49 145.344 122.43 2.399 28.043-3.996 54.811-16.894 77.582l20.086 16.919c7.804-3.226 17.13-2.113 24.01 3.682l95.601 80.53c9.825 8.276 11.09 23.058 2.814 32.883l-17.521 20.8c-8.278 9.828-23.096 11.087-32.883 2.814l-95.601-80.53c-6.563-5.528-9.306-13.96-7.937-21.878l-20.522-17.286c-13.969 11.436-30.337 20.147-48.352 25.238zm-85.814-254.409c-14.582-23.021-28.557-44.47-39.562-63.345-35.253 61.192-92.568 137.874-114.584 210.26-14.863 48.872-13.357 95.743 24.642 133.742 49.459 49.459 130.378 49.461 179.796.002l.003-.003c7.163-7.16 13.021-14.675 17.703-22.495-2.449.345-4.922.625-7.416.839-27.666 2.367-54.091-3.826-76.661-16.378-1.784 2.597-3.128 5.559-3.902 8.804-2.483 10.424 1.613 20.887 9.596 27.025 2.187 1.681 3.183 4.489 2.543 7.172-.639 2.683-2.794 4.741-5.504 5.255-5.42 1.029-11.138.959-16.849-.401-21.666-5.163-35.064-26.944-29.902-48.609 2.152-9.03 7.189-16.625 13.903-22.038-21.474-21.586-35.769-50.553-38.568-83.261-5.193-60.689 30.806-115.408 84.762-136.569zm-72.475 203.084c-2.743 4.869-6.531 9.251-11.314 12.784-18.146 13.404-43.761 9.554-57.165-8.592s-9.554-43.761 8.592-57.165c4.783-3.533 10.085-5.865 15.545-7.056 2.695-.587 5.484.462 7.122 2.68 1.639 2.219 1.822 5.193.469 7.595-5.041 8.948-4.707 20.402 1.785 29.191 6.493 8.789 17.342 12.476 27.376 10.287 2.695-.587 5.483.462 7.122 2.681 1.639 2.218 1.822 5.192.468 7.595zm-22.405 3.321c-9.222-2.09-17.767-7.37-23.822-15.566-6.054-8.196-8.589-17.916-7.876-27.345-9.713 9.199-11.264 24.431-3.115 35.464 8.15 11.033 23.165 14.028 34.813 7.447zm265.399 38.067c-3.311 3.931-2.805 9.845 1.126 13.156l95.605 80.533.005.004c3.916 3.31 9.837 2.795 13.146-1.133l17.522-20.801c3.311-3.931 2.805-9.845-1.126-13.156l-95.601-80.529c-3.928-3.309-9.852-2.811-13.152 1.121zm-131.657-239.298c-66.236 5.667-115.343 63.965-109.675 130.201 5.668 66.237 63.965 115.343 130.201 109.676 66.237-5.668 115.344-63.966 109.676-130.202-5.668-66.237-63.965-115.343-130.202-109.675zm18.858 220.38c-55.314 4.733-104.301-36.509-109.037-91.847-4.733-55.314 36.533-104.304 91.848-109.037 55.337-4.735 104.303 36.533 109.036 91.847 4.736 55.338-36.509 104.302-91.847 109.037zm-1.193-13.949c47.652-4.078 83.169-46.241 79.091-93.894-4.075-47.633-46.241-83.17-93.894-79.092-47.632 4.076-83.168 46.262-79.092 93.894 4.078 47.653 46.262 83.168 93.895 79.092zm8.124-36.217c-2.673 4.745-6.364 9.016-11.025 12.459-17.684 13.062-42.645 9.31-55.707-8.373-13.062-17.684-9.311-42.645 8.373-55.707 4.66-3.443 9.828-5.716 15.149-6.877 2.694-.587 5.483.462 7.121 2.681 1.639 2.218 1.822 5.192.469 7.595-4.846 8.6-4.525 19.61 1.716 28.058 6.241 8.449 16.67 11.992 26.314 9.889 2.695-.588 5.484.462 7.122 2.68 1.639 2.219 1.822 5.192.468 7.595zm-22.498 3.196c-8.778-2.12-16.887-7.217-22.667-15.042-5.78-7.824-8.268-17.074-7.713-26.087-8.977 8.879-10.313 23.25-2.593 33.701s21.848 13.398 32.973 7.428zm64.342-55.196c-3.674 4.399-8.31 8.112-13.792 10.784-20.796 10.136-45.909 1.481-56.045-19.315-10.136-20.797-1.482-45.91 19.315-56.046 5.481-2.672 11.263-4.036 16.991-4.22 2.756-.088 5.308 1.451 6.516 3.93 1.209 2.479.849 5.437-.919 7.554-6.838 8.188-8.658 19.951-3.685 30.154 4.973 10.204 15.36 16.017 26.022 15.676 2.756-.088 5.308 1.45 6.516 3.93 1.209 2.479.849 5.436-.919 7.553zm-22.572-.674c-9.129-3.779-16.967-10.779-21.632-20.351s-5.35-20.058-2.703-29.577c-12.008 7.455-16.671 22.958-10.346 35.937 6.326 12.979 21.411 18.857 34.681 13.991zm-111.876 112.472c-2.621-1.837-5.175-3.767-7.657-5.784-5.272 3.566-9.278 9.038-10.868 15.711-3.095 12.991 4.028 26.046 16.166 30.705-4.193-8.238-5.596-17.949-3.287-27.637 1.136-4.768 3.078-9.137 5.646-12.995zm186.478-32.041c-4.19 5.867-8.844 11.393-13.915 16.518l16.672 14.044 13.914-16.519z" fill="url(#_Linear1)"/></svg>