<svg id="Layer_1" enable-background="new 0 0 512 512" viewBox="0 0 512 512" xmlns="http://www.w3.org/2000/svg"><path clip-rule="evenodd" d="m503 369.102h-494v12.092c0 14.185 11.606 25.79 25.789 25.79h442.421c14.183 0 25.789-11.604 25.789-25.79v-12.092zm-349.407 53.881-22.166 38.036c-1.675 2.874.59 6.026 3.463 6.026h242.22c2.873 0 5.138-3.152 3.463-6.026l-22.165-38.036zm-30.473-298.596c14.265 3.934 23.829 17.9 21.741 33.07l38.713 16.701c12.978-42.714-16.032-86.971-60.454-91.915zm15.406 47.748 38.712 16.7c-19.813 34.594-64.132 46.395-98.438 26.136l25.305-33.7c12.314 4.861 26.237 1.039 34.421-9.136zm-47.16-.44c-13.01-16.804-4.826-41.633 15.754-47.308v-42.144c-35.743 3.978-63.538 34.285-63.538 71.09 0 20.519 8.64 39.018 22.479 52.062zm144.866 12.104 51.737-67.267c-5.695-11.703 2.767-25.656 16.063-25.656 10.762 0 19.064 9.439 17.711 20.124l44.674 29.937c4.589-2.618 10.169-3.071 15.154-1.184l47.51-43.865-9.949-.468c-4.401-.207-7.801-3.943-7.594-8.344s3.943-7.801 8.344-7.594l30.021 1.414c4.861.229 8.455 4.658 7.395 9.783l-5.298 29.163c-.776 4.332-4.918 7.214-9.25 6.438s-7.214-4.918-6.438-9.25l1.328-7.311-45.237 41.767c3.28 11.338-5.197 22.824-17.153 22.824-10.766 0-19.066-9.448-17.711-20.125l-44.673-29.937c-3.664 2.09-8.003 2.832-12.252 2.008l-51.737 67.267c5.695 11.701-2.766 25.656-16.063 25.656-9.861 0-17.854-7.993-17.854-17.854 0-11.255 10.27-19.66 21.272-17.526zm-19.809 66.467h32.782c2.203 0 4 1.797 4 4v63.039c0 2.203-1.797 4-4 4h-32.782c-2.203 0-4-1.797-4-4v-63.039c0-2.203 1.797-4 4-4zm213.655-110.625c-2.203 0-4 1.797-4 4v173.664c0 2.203 1.797 4 4 4h32.782c2.203 0 4-1.797 4-4v-173.664c0-2.203-1.797-4-4-4zm-71.219 65.755c-2.203 0-4 1.797-4 4v107.909c0 2.203 1.797 4 4 4h32.783c2.203 0 4-1.797 4-4v-107.909c0-2.203-1.797-4-4-4zm-71.218-33.857c-2.203 0-4 1.797-4 4v141.766c0 2.203 1.797 4 4 4h32.783c2.203 0 4-1.797 4-4v-141.766c0-2.203-1.797-4-4-4zm215.359 181.564h-494v-282.359c0-14.185 11.606-25.79 25.79-25.79h442.42c14.184 0 25.79 11.604 25.79 25.79zm-445.685-14.941h7.337c4.418 0 8-3.582 8-8s-3.582-8-8-8h-7.337c-4.418 0-8 3.582-8 8s3.581 8 8 8zm31.002 0h72.361c4.418 0 8-3.582 8-8s-3.582-8-8-8h-72.361c-4.418 0-8 3.582-8 8s3.582 8 8 8zm0-64.36h72.361c4.418 0 8-3.582 8-8s-3.582-8-8-8h-72.361c-4.418 0-8 3.582-8 8s3.582 8 8 8zm0 32.18h72.361c4.418 0 8-3.582 8-8s-3.582-8-8-8h-72.361c-4.418 0-8 3.582-8 8s3.582 8 8 8zm-31.002-32.18h7.337c4.418 0 8-3.582 8-8s-3.582-8-8-8h-7.337c-4.418 0-8 3.582-8 8s3.581 8 8 8zm0 32.18h7.337c4.418 0 8-3.582 8-8s-3.582-8-8-8h-7.337c-4.418 0-8 3.582-8 8s3.581 8 8 8z" fill-rule="evenodd"/></svg>