<svg width="253" height="97" viewBox="0 0 253 97" fill="none" xmlns="http://www.w3.org/2000/svg">
<g id="Layer_1" clip-path="url(#clip0_381_12023)">
<path id="Vector" fill-rule="evenodd" clip-rule="evenodd" d="M5.59834 49.2427L4.56055 48.1953C6.3981 46.3197 8.98781 45.1391 11.8251 45.1391C14.6623 45.1391 17.2235 46.3007 19.0706 48.1668L18.0137 49.2046C16.4523 47.605 14.2339 46.6244 11.8251 46.6244C9.41626 46.6244 7.18834 47.605 5.59834 49.2427ZM9.2544 52.7464L8.26422 51.8038C9.15919 50.8612 10.4445 50.2995 11.8346 50.2995C13.2247 50.2995 14.4719 50.8707 15.3859 51.8038L14.4148 52.7464C13.7578 52.099 12.8248 51.68 11.8346 51.68C10.7968 51.68 9.90183 52.099 9.2544 52.7464ZM11.8346 55.298L9.98752 53.489C10.454 53.0606 11.1396 52.7083 11.8346 52.7083C12.5296 52.7083 13.1961 53.0511 13.6626 53.489L11.8346 55.298ZM11.8346 49.2427C13.5198 49.2427 15.0622 49.9186 16.1381 51.0707L17.2901 49.9186C15.9096 48.5095 13.9578 47.6146 11.8346 47.6146C9.71141 47.6146 7.76913 48.5095 6.34097 49.9186L7.4835 51.0802C8.60697 49.9186 10.1303 49.2427 11.8251 49.2427" fill="#0E6EB6"/>
<path id="Vector_2" fill-rule="evenodd" clip-rule="evenodd" d="M4.9701 56.5167H18.5375C8.80706 81.1285 7.13137 95.5528 16.9856 95.172C-4.67468 96.4478 -1.86598 75.4064 4.97962 56.5167" fill="#0E6EB6"/>
<path id="Vector_3" fill-rule="evenodd" clip-rule="evenodd" d="M17.4421 18.7659C29.8385 -1.39006 49.8897 -3.45612 64.1903 3.88458C80.0523 12.0441 84.9461 30.9242 80.9949 47.5003C77.5197 62.6197 67.5607 76.4346 54.6883 85.3177C46.8906 90.6114 38.0361 94.1627 28.4579 95.7432C35.6558 93.5534 42.092 89.0595 47.1286 83.5373C50.2325 80.1669 53.0221 76.3204 55.1739 72.3692C62.5051 62.534 65.8469 52.8892 66.0945 44.4821C66.5705 33.2188 61.6672 22.0411 51.3179 16.8808C42.311 12.3011 30.1812 12.5392 17.4326 18.7659" fill="#F26329"/>
<path id="Vector_4" fill-rule="evenodd" clip-rule="evenodd" d="M8.09249 41.5116C18.1848 21.5365 38.9691 20.1179 51.2131 28.7725C56.145 32.2381 59.2774 37.17 60.7341 43.0445C62.4003 50.4042 61.1911 58.0686 58.43 65.2855C56.0308 71.7789 52.0795 78.2436 47.1477 83.5373C40.1783 91.2398 30.2003 97.1143 19.5177 97C15.4237 97 11.3392 96.0384 7.39746 93.7248C12.4341 96.1526 20.2699 95.2958 25.0589 93.382C32.9804 90.1354 39.35 83.404 43.3107 75.9586C48.214 66.8375 52.0795 52.1846 44.2628 43.749C37.1696 35.9418 23.0214 33.295 8.10202 41.5021" fill="#09A14A"/>
<path id="Vector_5" d="M245.166 52.9654L247.565 46.0817C247.28 46.0626 246.975 46.0341 246.718 46.0341C245.061 46.0341 243.719 46.5482 242.672 47.605C241.624 48.6428 240.91 49.9186 240.596 51.461C240.387 52.3179 240.425 52.9844 240.663 53.489C240.92 53.9746 241.348 54.2317 241.977 54.2317C242.948 54.2317 244.024 53.8032 245.176 52.9654M252.764 42.9778L247.784 57.1356H243.7L244.166 55.7931C242.681 56.8595 241.244 57.4212 239.863 57.4212C238.482 57.4212 237.464 56.8214 236.807 55.6789C236.121 54.5078 236.016 53.0511 236.416 51.223C236.988 48.6428 238.292 46.5387 240.377 44.9296C242.424 43.2825 245.071 42.4827 248.251 42.4827C249.85 42.4827 251.355 42.6351 252.764 42.9683M236.112 42.7398L231.056 57.126H226.972L232.046 42.7398H236.121H236.112ZM233.332 38.7219C233.446 38.1126 233.741 37.6175 234.246 37.1605C234.769 36.7606 235.321 36.5226 235.883 36.5226C236.473 36.5226 236.921 36.7606 237.245 37.1605C237.587 37.6175 237.664 38.1126 237.53 38.7219C237.407 39.3313 237.083 39.8549 236.569 40.331C236.055 40.7214 235.521 40.9403 234.912 40.9403C234.341 40.9403 233.922 40.7309 233.57 40.331C233.255 39.8549 233.16 39.3218 233.332 38.7219ZM220.497 53.7366L223.116 46.2816C222.782 46.2245 222.459 46.2055 222.097 46.2055C220.659 46.2055 219.412 46.6339 218.393 47.4432C217.327 48.2906 216.698 49.2998 216.413 50.5375C216.213 51.5563 216.346 52.3941 216.86 52.9939C217.384 53.6223 218.222 53.9175 219.336 53.9175C219.64 53.9175 220.002 53.8413 220.497 53.7461M230.989 35.4943L223.458 56.9261C221.63 57.2403 220.021 57.4117 218.65 57.4117C216.203 57.4117 214.404 56.7833 213.242 55.517C212.071 54.2888 211.757 52.594 212.223 50.4994C212.69 48.2906 213.871 46.3864 215.765 44.8154C217.641 43.2349 219.888 42.4732 222.459 42.4732C222.897 42.4732 223.534 42.5113 224.42 42.6256L226.924 35.4943H230.989ZM203.131 42.7398L202.512 44.3489C204.331 43.1016 206.035 42.4732 207.615 42.4732C208.796 42.4732 209.634 42.8636 210.1 43.6443C210.576 44.3965 210.662 45.5009 210.338 46.9005C210.253 47.3099 210.129 47.7574 209.986 48.1858L206.854 57.126H202.788L205.806 48.5381C205.911 48.3001 205.997 48.0525 206.054 47.7859C206.34 46.3673 206.073 45.6723 205.226 45.6723C204.283 45.6723 202.96 46.3864 201.331 47.8812L198.066 57.126H193.981L199.075 42.7398H203.16H203.131ZM197.323 35.4943L189.678 57.126H185.298L192.934 35.4943H197.314H197.323ZM180.376 35.4943L172.749 57.126H168.703L176.32 35.4943H180.376ZM162.305 52.9558L164.685 46.0722C164.399 46.0531 164.095 46.0246 163.838 46.0246C162.181 46.0246 160.848 46.5387 159.81 47.5955C158.744 48.6333 158.059 49.9091 157.725 51.4515C157.516 52.3084 157.554 52.9749 157.811 53.4795C158.058 53.9651 158.477 54.2221 159.106 54.2221C160.077 54.2221 161.134 53.7937 162.314 52.9558M169.893 42.9683L164.895 57.126H160.829L161.305 55.7836C159.772 56.8499 158.354 57.4117 157.011 57.4117C155.669 57.4117 154.602 56.8119 153.926 55.6693C153.279 54.4983 153.127 53.0415 153.536 51.2135C154.098 48.6333 155.412 46.5292 157.497 44.9201C159.553 43.273 162.191 42.4732 165.39 42.4732C166.961 42.4732 168.474 42.6256 169.893 42.9588M152.203 39.7026L150.975 42.7398H153.974L152.746 45.8817H149.728L147.938 50.5661C147.766 50.9469 147.671 51.3087 147.595 51.6705C147.3 52.9558 147.595 53.5747 148.423 53.5747C148.89 53.5747 149.737 53.2891 150.946 52.7083L150.118 56.4881C148.795 57.1165 147.557 57.4307 146.424 57.4307C145.081 57.4307 144.148 56.9642 143.558 56.1073C142.977 55.2028 142.872 54.0508 143.168 52.6417C143.291 52.2323 143.415 51.8133 143.558 51.3944L145.738 45.9008H142.977L144.177 42.7588H146.957L148.109 39.7217H152.222L152.203 39.7026ZM142.225 42.7398L137.141 57.126H133.075L138.141 42.7398H142.225ZM139.416 38.7219C139.55 38.1126 139.854 37.6175 140.349 37.1605C140.864 36.7606 141.397 36.5226 141.997 36.5226C142.596 36.5226 143.034 36.7606 143.368 37.1605C143.663 37.6175 143.777 38.1126 143.653 38.7219C143.51 39.3313 143.187 39.8549 142.692 40.331C142.158 40.7214 141.606 40.9403 141.044 40.9403C140.483 40.9403 139.997 40.7309 139.702 40.331C139.369 39.8549 139.274 39.3218 139.416 38.7219ZM126.163 60.2965C126.296 59.6301 125.754 59.135 124.554 58.8779L122.85 58.4685C122.44 58.4685 121.917 58.5923 121.231 58.8779C120.508 59.1445 120.098 59.5825 119.965 60.1632C119.755 61.1725 120.65 61.658 122.669 61.658C123.792 61.658 124.611 61.5438 125.173 61.3439C125.725 61.1725 126.039 60.7726 126.163 60.2965ZM125.992 50.7755C127.468 50.7755 128.42 49.7282 128.877 47.6717C129 47.0243 128.962 46.5292 128.715 46.1769C128.448 45.8056 128.01 45.6247 127.439 45.6247C125.954 45.6247 124.973 46.6625 124.478 48.7856C124.202 50.09 124.687 50.7755 125.982 50.7755M135.808 42.7303L134.723 45.8722H132.542C132.695 46.6529 132.695 47.3956 132.542 48.1763C132.199 49.6616 131.428 50.9184 130.171 51.9085C128.905 52.9178 127.382 53.4224 125.649 53.4224C124.773 53.4224 124.107 53.4605 123.707 53.5557C123.316 53.6223 123.078 53.8413 123.012 54.2031C122.964 54.3745 123.04 54.5268 123.278 54.7172C123.469 54.822 124.44 55.0314 126.144 55.3266C127.829 55.6217 128.972 56.0978 129.553 56.869C130.152 57.6211 130.324 58.5732 130.086 59.6967C129.41 62.8006 126.706 64.3811 121.983 64.3811C119.841 64.3811 118.28 64.0478 117.318 63.4099C116.366 62.7815 116.004 61.9246 116.233 60.8107C116.547 59.4396 117.899 58.3257 120.317 57.6021C119.203 56.9356 118.775 56.0597 119.013 54.9267C119.308 53.5938 120.422 52.7083 122.355 52.2799C120.984 51.2801 120.508 49.9091 120.879 48.1287C121.222 46.6625 122.05 45.4057 123.44 44.3298C124.783 43.2539 126.344 42.7208 128.143 42.7208H135.817L135.808 42.7303ZM119.575 42.7303L114.49 57.1165H110.425L115.481 42.7303H119.575ZM116.747 38.7124C116.88 38.1031 117.213 37.608 117.718 37.151C118.232 36.7511 118.775 36.5131 119.346 36.5131C119.917 36.5131 120.384 36.7511 120.717 37.151C121.031 37.608 121.127 38.1031 120.974 38.7124C120.841 39.3218 120.517 39.8454 120.032 40.3215C119.517 40.7118 118.984 40.9308 118.365 40.9308C117.794 40.9308 117.356 40.7214 117.032 40.3215C116.718 39.8454 116.633 39.3122 116.747 38.7124ZM98.8188 39.0837L93.7917 53.4985H97.8857C100.037 53.4985 101.875 52.794 103.379 51.3754C104.922 49.9662 105.931 48.1477 106.398 45.977C106.845 43.9585 106.559 42.2638 105.607 41.0165C104.627 39.7407 103.075 39.0837 100.942 39.0837H98.8188ZM95.7435 35.4848H102.58C106.026 35.4848 108.445 36.475 109.844 38.4173C111.234 40.3976 111.586 42.9207 110.92 46.015C110.215 49.2236 108.692 51.8609 106.388 53.9555C104.055 56.0883 101.551 57.1165 98.7712 57.1165H88.1553L95.753 35.4848H95.7435Z" fill="#5D6366"/>
<path id="Vector_6" fill-rule="evenodd" clip-rule="evenodd" d="M89.8588 71.9217H92.2105C92.9436 71.9217 93.7624 71.7408 94.3527 71.2362C94.8954 70.7887 95.1049 70.1508 95.1049 69.4462C95.1049 68.7417 94.8954 68.1038 94.3527 67.6277C93.7624 67.0945 92.9436 66.9708 92.2105 66.9708H89.8588V71.9122V71.9217ZM89.8588 73.2261V78.7292H88.4688V65.6854H91.9058C93.096 65.6854 94.3813 65.9139 95.3334 66.6566C96.2093 67.3802 96.5997 68.3418 96.5997 69.4557C96.5997 70.5697 96.2093 71.5408 95.3334 72.2359C94.3813 73.0071 93.1055 73.2451 91.9058 73.2451H89.8588V73.2261Z" fill="#5D6366"/>
<path id="Vector_7" fill-rule="evenodd" clip-rule="evenodd" d="M102.198 77.4534C103.093 77.4534 103.845 77.1201 104.483 76.4632C105.121 75.7777 105.435 74.9874 105.435 74.0449C105.435 73.1023 105.121 72.2644 104.483 71.6361C103.845 70.9505 103.093 70.6078 102.198 70.6078C101.246 70.6078 100.503 70.9505 99.8844 71.6361C99.2465 72.2644 98.9323 73.1023 98.9323 74.0449C98.9323 74.9874 99.2465 75.7872 99.8844 76.4632C100.503 77.1297 101.246 77.4534 102.198 77.4534ZM102.198 78.7482C100.903 78.7482 99.7702 78.3579 98.8942 77.4248C97.9707 76.4918 97.5898 75.3112 97.5898 74.0353C97.5898 72.7595 97.9707 71.5504 98.8942 70.6363C99.7797 69.7223 100.903 69.2939 102.198 69.2939C103.493 69.2939 104.597 69.7223 105.483 70.6363C106.397 71.5599 106.778 72.75 106.778 74.0353C106.778 75.3207 106.397 76.4822 105.483 77.4248C104.597 78.3579 103.464 78.7482 102.198 78.7482Z" fill="#5D6366"/>
<path id="Vector_8" fill-rule="evenodd" clip-rule="evenodd" d="M112.262 76.387L114.833 69.132H115.68L118.298 76.3775L121.04 69.2653H122.316L118.641 78.7387H117.803L115.233 71.636L112.624 78.7387H111.795L108.13 69.2653H109.529L112.262 76.387Z" fill="#5D6366"/>
<path id="Vector_9" fill-rule="evenodd" clip-rule="evenodd" d="M130.105 72.8833C130.01 72.3787 129.819 71.9122 129.496 71.5218C128.981 70.8839 128.286 70.6363 127.477 70.6363C126.668 70.6363 126.068 71.0077 125.544 71.5789C125.24 71.9883 125.04 72.4073 124.887 72.8833H130.105ZM124.726 74.0068C124.726 74.9398 125.078 75.7491 125.725 76.387C126.392 77.0725 127.201 77.3963 128.134 77.3963C128.705 77.3963 129.238 77.301 129.753 77.1106C130.314 76.9107 130.8 76.5775 131.276 76.2157L131.581 75.9586V77.4248L131.485 77.4629C131.009 77.8628 130.495 78.2246 129.886 78.4436C129.334 78.6816 128.715 78.7387 128.115 78.7387C126.801 78.7387 125.64 78.3674 124.716 77.4343C123.783 76.5013 123.393 75.3683 123.393 74.0544C123.393 72.7405 123.697 71.6265 124.535 70.6459C125.306 69.7509 126.287 69.3129 127.477 69.3129C128.667 69.3129 129.753 69.6462 130.514 70.5602C131.295 71.4647 131.533 72.6453 131.562 73.7878L131.59 73.9782H124.735L124.726 74.0068Z" fill="#5D6366"/>
<path id="Vector_10" fill-rule="evenodd" clip-rule="evenodd" d="M135.818 70.6459C136.665 69.2844 138.226 68.6274 139.74 69.5129C139.778 69.5129 139.816 69.5414 139.826 69.5795V71.0743C139.74 71.0267 139.826 71.1029 139.712 71.0458C137.56 69.8461 136.246 71.5694 135.818 72.7405V78.7006H134.494V69.2082H135.818V70.6554V70.6459Z" fill="#5D6366"/>
<path id="Vector_11" fill-rule="evenodd" clip-rule="evenodd" d="M149.48 67.0088H145.271V65.8092H155.088V67.0088H150.889V78.5864H149.48V67.0088Z" fill="#5D6366"/>
<path id="Vector_12" fill-rule="evenodd" clip-rule="evenodd" d="M172.34 67.2088V71.3885H177.653V72.6262H172.34V77.301H178.633V78.5483H170.94V65.9615H178.395V67.2088H172.34Z" fill="#5D6366"/>
<path id="Vector_13" fill-rule="evenodd" clip-rule="evenodd" d="M182.461 70.465C183.165 69.6747 184.013 69.1987 185.098 69.1987C186.069 69.1987 186.917 69.5129 187.583 70.2079C187.793 70.4554 187.974 70.6554 188.126 70.9505L188.316 70.6363C189.04 69.7604 189.963 69.1891 191.125 69.1891C192.115 69.1891 192.953 69.5033 193.61 70.1984C194.295 70.8839 194.553 71.8074 194.553 72.7786V78.415H193.172V72.8357C193.172 72.2073 193.02 71.6265 192.572 71.1314C192.144 70.6459 191.611 70.484 190.982 70.484C190.116 70.484 189.487 70.9696 188.983 71.5504C188.811 71.7217 188.65 71.9312 188.526 72.1407V78.415H187.145V72.8357C187.145 72.2073 187.002 71.6265 186.545 71.1314C186.098 70.6459 185.574 70.484 184.955 70.484C184.108 70.484 183.442 70.9696 182.937 71.5504C182.756 71.7217 182.642 71.9312 182.47 72.1407V78.415H181.128V69.37H182.47V70.4459L182.461 70.465Z" fill="#5D6366"/>
<path id="Vector_14" d="M197.504 69.3891H198.884V70.5316C199.142 70.0365 199.656 69.7033 200.17 69.5129C201.807 68.9321 203.807 69.1415 205.035 70.465C206.739 72.4263 206.644 75.5777 205.083 77.3296C203.426 79.1386 200.998 78.7292 199.018 77.6819C198.951 77.6343 198.913 77.6152 198.884 77.5962V82.0044H197.504V69.3796V69.3891ZM203.064 71.0362C201.922 70.2936 200.255 70.465 198.913 72.2644V75.9491C200.313 77.4534 202.122 77.5962 203.321 76.7203C205.083 75.4159 204.987 72.2359 203.064 71.0267" fill="#5D6366"/>
<path id="Vector_15" d="M111.415 59.3063H85.3271V60.8107H111.415V59.3063Z" fill="#5D6366"/>
<path id="Vector_16" d="M251.107 59.3063H132.418V60.8107H251.107V59.3063Z" fill="#5D6366"/>
<path id="Vector_17" fill-rule="evenodd" clip-rule="evenodd" d="M158.839 77.2153C159.753 77.2153 160.524 76.8821 161.124 76.2252C161.752 75.5587 162.095 74.7494 162.095 73.8164C162.095 72.8833 161.752 72.074 161.124 71.3885C160.524 70.703 159.753 70.3983 158.839 70.3983C157.925 70.3983 157.172 70.703 156.535 71.3885C155.887 72.074 155.582 72.8928 155.582 73.8164C155.582 74.7399 155.887 75.5587 156.535 76.2252C157.163 76.8821 157.934 77.2153 158.839 77.2153ZM158.839 78.5197C157.572 78.5197 156.43 78.1103 155.535 77.1963C154.611 76.2537 154.23 75.0922 154.23 73.8164C154.23 72.5405 154.621 71.3409 155.535 70.4364C156.42 69.5033 157.563 69.0939 158.839 69.0939C160.114 69.0939 161.266 69.5033 162.123 70.4364C163.037 71.3409 163.447 72.531 163.447 73.8164C163.447 75.1017 163.037 76.2537 162.123 77.1963C161.238 78.1198 160.086 78.5197 158.839 78.5197Z" fill="#5D6366"/>
<path id="Vector_18" fill-rule="evenodd" clip-rule="evenodd" d="M212.585 77.2153C213.489 77.2153 214.241 76.8821 214.87 76.2252C215.498 75.5587 215.822 74.7494 215.822 73.8164C215.822 72.8833 215.498 72.074 214.87 71.3885C214.241 70.703 213.489 70.3983 212.585 70.3983C211.68 70.3983 210.919 70.703 210.3 71.3885C209.633 72.074 209.329 72.8928 209.329 73.8164C209.329 74.7399 209.643 75.5587 210.3 76.2252C210.919 76.8821 211.699 77.2153 212.585 77.2153ZM212.585 78.5197C211.28 78.5197 210.157 78.1103 209.281 77.1963C208.348 76.2537 207.977 75.0922 207.977 73.8164C207.977 72.5405 208.348 71.3409 209.281 70.4364C210.157 69.5033 211.28 69.0939 212.585 69.0939C213.889 69.0939 215.003 69.5033 215.889 70.4364C216.774 71.3409 217.174 72.531 217.174 73.8164C217.174 75.1017 216.774 76.2537 215.889 77.1963C214.994 78.1198 213.861 78.5197 212.585 78.5197Z" fill="#5D6366"/>
<path id="Vector_19" fill-rule="evenodd" clip-rule="evenodd" d="M222.658 76.4918L225.238 69.2082H226.104L228.675 76.4822L231.427 69.351H232.74L229.065 78.8149H228.228L225.638 71.7313L223.058 78.8149H222.21L218.535 69.351H219.925L222.658 76.4918Z" fill="#5D6366"/>
<path id="Vector_20" fill-rule="evenodd" clip-rule="evenodd" d="M240.51 72.8833C240.405 72.3787 240.244 71.9122 239.901 71.5218C239.396 70.8839 238.692 70.6363 237.892 70.6363C237.092 70.6363 236.454 71.0077 235.969 71.5789C235.664 71.9883 235.426 72.4073 235.312 72.8833H240.51ZM235.14 74.0068C235.14 74.9398 235.493 75.7491 236.14 76.387C236.826 77.0725 237.606 77.3963 238.53 77.3963C239.082 77.3963 239.634 77.301 240.148 77.1106C240.701 76.9107 241.224 76.5775 241.653 76.2157L241.986 75.9586V77.4248L241.919 77.4629C241.443 77.8628 240.891 78.2246 240.291 78.4436C239.729 78.6816 239.12 78.7387 238.501 78.7387C237.197 78.7387 236.054 78.3674 235.112 77.4343C234.198 76.5013 233.798 75.3683 233.798 74.0544C233.798 72.7405 234.112 71.6265 234.931 70.6459C235.721 69.7509 236.711 69.3129 237.892 69.3129C239.072 69.3129 240.129 69.6462 240.91 70.5602C241.7 71.4647 241.948 72.6453 241.976 73.7878V73.9782H235.14V74.0068Z" fill="#5D6366"/>
<path id="Vector_21" fill-rule="evenodd" clip-rule="evenodd" d="M246.213 70.5506C247.061 69.2082 248.613 68.5512 250.126 69.4272C250.174 69.4272 250.193 69.4653 250.231 69.4748V71.0172C250.117 70.8934 250.222 71.0457 250.117 70.9505C247.956 69.7414 246.651 71.4837 246.223 72.6262V78.5864H244.899V69.1225H246.223V70.5506H246.213Z" fill="#5D6366"/>
</g>
<defs>
<clipPath id="clip0_381_12023">
<rect width="252.754" height="97" fill="white"/>
</clipPath>
</defs>
</svg>
