<svg width="20" height="20" viewBox="0 0 20 20" fill="none" xmlns="http://www.w3.org/2000/svg">
<mask id="mask0_67_524" style="mask-type:luminance" maskUnits="userSpaceOnUse" x="0" y="0" width="20" height="20">
<path d="M19.9444 0H0V19.9733H19.9444V0Z" fill="white"/>
</mask>
<g mask="url(#mask0_67_524)">
<path d="M19.9411 9.94091C19.9411 12.0942 19.9411 14.2472 19.9411 16.3998C19.9411 18.5942 18.3856 20.0398 16.1833 19.9709C14.5467 19.9198 12.9078 19.9709 11.27 19.962C8.5489 19.9554 5.82557 19.9842 3.10668 19.9198C1.34112 19.8776 0.0100114 18.3676 0.00556693 16.5265C1.13705e-05 12.5676 1.13708e-05 8.6098 1.13708e-05 4.65091C1.13708e-05 4.16424 -0.0110997 3.67757 0.00667804 3.19202C0.0766781 1.45535 1.5089 0.0209065 3.24779 0.0131288C7.7189 -0.00464905 12.1919 -0.00501941 16.6667 0.0120177C17.099 0.0130334 17.5269 0.0994016 17.9258 0.266168C18.3247 0.432933 18.6868 0.676815 18.9912 0.983823C19.2957 1.29083 19.5365 1.65492 19.6998 2.05522C19.8632 2.45551 19.946 2.88412 19.9433 3.31646C19.9489 5.52424 19.9411 7.73313 19.9411 9.94091ZM9.98335 0.928684H3.52779C1.93557 0.928684 0.926679 1.93424 0.925567 3.52869C0.925567 7.83313 0.925567 12.1376 0.925567 16.442C0.925567 17.9976 1.95223 19.0198 3.51223 19.0209C7.81668 19.0209 12.1203 19.0209 16.4233 19.0209C18.0233 19.0209 19.0178 18.0209 19.0189 16.4154V3.50202C19.0189 1.92757 18.0189 0.929795 16.4378 0.928684H9.98335Z" fill="white"/>
<path d="M11.5967 11.1433L13.0078 7.20215H14.6945L17.9689 15.5355H16.1645L13.91 9.31993L13.7722 9.28104L12.7533 12.281L15.8122 12.241L16.1645 13.6333L12.5567 13.6144L11.5967 11.1433Z" fill="white"/>
<path d="M8.56448 4.4375H6.15225L1.97559 15.5364H4.36781L5.26781 12.9808H9.49781L10.4267 15.5364H12.9367L8.56448 4.4375ZM5.89781 11.2031L7.34892 7.08528L8.84892 11.2031H5.89781Z" fill="white"/>
</g>
</svg>
