<svg id="Layer_1" enable-background="new 0 0 512 512" viewBox="0 0 512 512" xmlns="http://www.w3.org/2000/svg"><g><path d="m438.769 334.242c-8.398-1.837-16.986-.303-24.175 4.314l-66.063 42.347c-3.075-9.518-10.505-17.295-20.456-20.579l-115.139-38.078c-15.057-4.994-30.201-3.271-43.8 4.991l-50.337 30.619-4.078-6.395c-.997-1.562-2.573-2.666-4.383-3.066-1.809-.399-3.705-.064-5.268.933l-56.668 36.156c-3.253 2.075-4.208 6.395-2.133 9.648l72.143 113.137c.997 1.562 2.573 2.666 4.383 3.066.5.11 1.005.165 1.509.165 1.321 0 2.627-.375 3.759-1.097l56.668-36.156c3.253-2.075 4.208-6.395 2.133-9.648l-8.501-13.332 21.786-13.257 91.741 30.362c6.148 2.03 12.291 3.04 18.34 3.04 10.574-.001 20.864-3.086 30.399-9.196l108.616-69.629c7.193-4.621 12.166-11.783 14.002-20.168 1.837-8.394.305-16.979-4.31-24.163-4.608-7.201-11.77-12.177-20.168-14.014zm-312.331 160.618-64.629-101.352 44.885-28.639 3.896 6.11c.007.012.012.024.02.037.018.029.039.055.057.084l60.656 95.123zm315.259-114.037-108.609 69.625c-11.323 7.255-24.051 8.866-36.811 4.652l-94.805-31.375c-1.946-.645-4.077-.402-5.828.665l-24.797 15.089-44.533-69.837 50.082-30.463c10.124-6.152 20.937-7.387 32.145-3.666l115.15 38.081c7.663 2.529 12.657 9.789 12.393 17.827-.06.257-.11.518-.141.786-.696 5.977-3.997 11.522-8.616 14.47-4.302 2.748-9.364 3.189-15.038 1.318l-52.424-17.342c-3.667-1.209-7.616.776-8.829 4.44-1.212 3.665.776 7.617 4.44 8.829l52.431 17.344c3.675 1.211 7.346 1.812 10.916 1.812 5.744 0 11.224-1.554 16.026-4.621 7.326-4.677 12.568-12.54 14.444-21.442l72.85-46.697c4.049-2.6 8.893-3.463 13.641-2.423 4.747 1.038 8.789 3.841 11.388 7.903 5.392 8.396 2.934 19.624-5.475 25.025z" fill="#2e3760"/><path d="m411.603 53.688h-130.762c-3.859 0-6.988 3.129-6.988 6.988 0 3.86 3.129 6.989 6.988 6.989h130.763c3.859 0 6.988-3.129 6.988-6.989-.001-3.86-3.13-6.988-6.989-6.988z" fill="#ff695a"/><path d="m411.603 81.866h-35.703c-3.859 0-6.988 3.128-6.988 6.988s3.129 6.988 6.988 6.988h35.703c3.859 0 6.988-3.129 6.988-6.988s-3.129-6.988-6.988-6.988z" fill="#ff695a"/><path d="m280.841 95.843h69.087c3.859 0 6.988-3.129 6.988-6.988 0-3.86-3.129-6.988-6.988-6.988h-69.087c-3.859 0-6.988 3.128-6.988 6.988 0 3.859 3.128 6.988 6.988 6.988z" fill="#ff695a"/><path d="m425.523.5h-306.566c-22.76 0-41.277 18.517-41.277 41.277v176.68c0 22.76 18.517 41.278 41.277 41.278h142.608l86.279 86.279c1.337 1.336 3.124 2.047 4.943 2.047.9 0 1.808-.174 2.672-.532 2.612-1.082 4.314-3.629 4.314-6.456v-81.337h65.75c22.776 0 41.305-18.518 41.305-41.278v-176.681c0-22.76-18.53-41.277-41.305-41.277zm27.329 217.957c0 15.055-12.26 27.302-27.329 27.302h-72.737c-3.859 0-6.988 3.128-6.988 6.988v71.455l-76.397-76.396c-1.31-1.31-3.088-2.047-4.941-2.047h-145.503c-15.054 0-27.301-12.247-27.301-27.302v-176.68c0-15.054 12.247-27.301 27.301-27.301h306.566c15.069 0 27.329 12.247 27.329 27.301z" fill="#2e3760"/><g fill="#ff695a"><path d="m233.428 129.968c-.01-11.369-5.021-21.951-14.103-29.789l-22.851-19.784c.57-.462 1.142-.925 1.727-1.399 13.855-11.204 31.098-25.147 34.39-40.57.806-3.774-1.601-7.487-5.375-8.292-3.773-.798-7.487 1.601-8.292 5.376-.65 3.045-2.421 6.269-4.882 9.537-.314-.043-.633-.073-.958-.073h-54.801c-.324 0-.64.03-.952.072-2.452-3.269-4.224-6.502-4.896-9.572-.825-3.771-4.556-6.156-8.321-5.332-3.77.825-6.157 4.551-5.332 8.321 3.395 15.511 20.582 29.405 34.391 40.568.569.46 1.125.91 1.68 1.36l-22.587 19.505c-9.268 8.027-14.372 18.787-14.373 30.298-.001 11.382 5.002 21.987 14.094 29.865l22.865 19.776c-.527.427-1.054.853-1.594 1.288-13.844 11.177-31.074 25.086-34.475 40.652-.824 3.771 1.565 7.495 5.335 8.319.502.11 1.004.163 1.499.163 3.213 0 6.106-2.23 6.82-5.497.673-3.081 2.448-6.323 4.903-9.598.31.042.623.071.944.071h54.801c.323 0 .639-.03.951-.072 2.464 3.275 4.238 6.507 4.889 9.563.804 3.775 4.517 6.188 8.291 5.378 3.774-.804 6.183-4.516 5.378-8.291-3.297-15.479-20.586-29.439-34.478-40.657-.552-.446-1.092-.882-1.631-1.319l22.561-19.525c9.283-8.043 14.392-18.818 14.382-30.342zm-62.56-71.017h29.598c-3.747 3.269-7.592 6.38-11.053 9.178-1.285 1.04-2.54 2.055-3.747 3.042-1.195-.978-2.437-1.981-3.708-3.009-3.471-2.806-7.33-5.927-11.09-9.211zm14.794 30.569 23.052 19.958h-46.163zm14.797 111.736h-29.583c3.782-3.302 7.666-6.438 11.158-9.258 1.244-1.005 2.46-1.986 3.631-2.941 1.182.965 2.409 1.956 3.667 2.971 3.485 2.812 7.356 5.94 11.127 9.228zm-14.792-30.544-23.105-19.984h46.196zm-32.881-33.961c-.606-2.122-.92-4.319-.92-6.556 0-2.297.329-4.557.964-6.741h65.7c.604 2.111.919 4.298.921 6.524.002 2.308-.327 4.578-.967 6.772h-65.698z"/><path d="m349.928 140.485h-69.087c-3.859 0-6.988 3.129-6.988 6.989s3.129 6.988 6.988 6.988h69.087c3.859 0 6.988-3.129 6.988-6.988s-3.129-6.989-6.988-6.989z"/><path d="m411.603 140.485h-35.703c-3.859 0-6.988 3.129-6.988 6.989s3.129 6.988 6.988 6.988h35.703c3.859 0 6.988-3.129 6.988-6.988s-3.129-6.989-6.988-6.989z"/><path d="m411.603 112.308h-130.762c-3.859 0-6.988 3.129-6.988 6.988s3.129 6.989 6.988 6.989h130.763c3.859 0 6.988-3.129 6.988-6.989s-3.13-6.988-6.989-6.988z"/></g></g></svg>