<svg width="21" height="25" viewBox="0 0 21 25" fill="none" xmlns="http://www.w3.org/2000/svg">
<mask id="mask0_67_506" style="mask-type:luminance" maskUnits="userSpaceOnUse" x="0" y="0" width="21" height="25">
<path d="M20.9947 0H0V24.8467H20.9947V0Z" fill="white"/>
</mask>
<g mask="url(#mask0_67_506)">
<path d="M13.0515 13.4356C13.0988 13.6034 13.1513 13.7897 13.209 13.9885C13.272 14.1872 13.3402 14.386 13.4242 14.591C13.5082 14.796 13.6028 14.9886 13.7078 15.1811C13.8128 15.3737 13.9335 15.5414 14.0647 15.6843C14.2012 15.8333 14.3482 15.9452 14.511 16.0383C14.6737 16.1253 14.8575 16.1688 15.057 16.1688C15.2512 16.1688 15.4192 16.1377 15.5557 16.0694C15.6922 16.0011 15.8025 15.9079 15.8865 15.7961C15.9705 15.6843 16.0335 15.5476 16.0703 15.3923C16.107 15.237 16.128 15.0755 16.128 14.9078C16.128 14.5413 16.0177 14.2494 15.792 14.0444C15.5662 13.8394 15.2408 13.7338 14.8155 13.7338C14.763 13.7338 14.7105 13.7338 14.6632 13.74C14.6107 13.7462 14.5582 13.7462 14.511 13.7586V12.9449C14.5372 12.9511 14.5583 12.9511 14.5793 12.9511C14.6003 12.9511 14.6107 12.9511 14.6107 12.9511C14.8207 12.9511 15.0098 12.9201 15.1778 12.8579C15.3405 12.7958 15.4822 12.7089 15.5925 12.6033C15.7027 12.4977 15.7867 12.3734 15.8445 12.2306C15.9022 12.0877 15.9285 11.9386 15.9285 11.7771C15.9285 11.6342 15.9075 11.51 15.8655 11.3982C15.8235 11.2864 15.7657 11.1932 15.6922 11.1187C15.6187 11.0441 15.5347 10.9882 15.435 10.951C15.3352 10.9137 15.225 10.8951 15.1095 10.8951C15.0255 10.8951 14.9467 10.9013 14.8732 10.9137C14.7997 10.9261 14.7158 10.9448 14.6318 10.9758C14.5478 11.0007 14.4585 11.0379 14.364 11.0814C14.2695 11.1249 14.1592 11.1808 14.0385 11.2429L13.7812 10.5099C14.0175 10.3733 14.2432 10.2739 14.4637 10.1993C14.679 10.131 14.9048 10.0938 15.1305 10.0938C15.3458 10.0938 15.5505 10.1372 15.7343 10.218C15.918 10.2987 16.0807 10.4168 16.2172 10.5596C16.3537 10.7025 16.4587 10.8764 16.5322 11.0752C16.6057 11.274 16.6477 11.4914 16.6477 11.7274C16.6477 12.3672 16.3905 12.8828 15.8707 13.2741V13.2928C16.0755 13.3922 16.2435 13.5164 16.38 13.6655C16.4692 13.6841 16.5585 13.6965 16.6582 13.7089C16.758 13.7214 16.8472 13.7276 16.926 13.7276C17.01 13.7276 17.0992 13.7214 17.1937 13.7089C17.2882 13.6965 17.3827 13.6655 17.4825 13.6282C17.5822 13.5909 17.682 13.535 17.7818 13.4605C17.8815 13.3859 17.9865 13.2928 18.0862 13.181V10.2056H19.782V10.9944H18.8265V18.2124H18.081V14.1003L18.0652 14.0941C17.892 14.2307 17.7292 14.3177 17.5822 14.3612C17.43 14.4047 17.2777 14.4233 17.115 14.4233C17.0625 14.4233 17.01 14.4233 16.9575 14.4171C16.905 14.4109 16.8472 14.4047 16.7895 14.3984L16.7843 14.4171C16.8315 14.5662 16.8577 14.7463 16.8577 14.9575C16.8577 15.2494 16.8157 15.5165 16.737 15.765C16.653 16.0135 16.5375 16.2247 16.3852 16.4048C16.233 16.585 16.0492 16.7278 15.834 16.8272C15.6188 16.9266 15.3773 16.9763 15.1043 16.9763C14.8155 16.9763 14.5582 16.9142 14.3272 16.7962C14.0962 16.6781 13.8862 16.5228 13.7025 16.3303C13.5187 16.1377 13.356 15.9265 13.2142 15.6905C13.0725 15.4544 12.957 15.2122 12.8572 14.9761C12.7575 14.7339 12.6735 14.5103 12.6105 14.2928C12.5475 14.0754 12.5002 13.8953 12.4688 13.7524L13.0515 13.4356Z" fill="#607D8B"/>
<path fill-rule="evenodd" clip-rule="evenodd" d="M19.5981 5.7332C19.8029 5.7332 19.9971 5.82637 20.1389 5.99409C20.2806 6.1618 20.3594 6.37922 20.3594 6.60906V23.2129C20.3594 23.4427 20.2806 23.6663 20.1389 23.8278C19.9919 23.9956 19.7976 24.0887 19.5981 24.0887H11.8964L6.83537 5.7332H19.5981ZM19.5981 4.98779H5.96387L11.4396 24.8466H19.6034C20.3699 24.8466 20.9999 24.1136 20.9999 23.2191V6.61527C20.9946 5.72077 20.3646 4.98779 19.5981 4.98779Z" fill="#DCDCDC"/>
<path fill-rule="evenodd" clip-rule="evenodd" d="M10.1428 20.1567L11.4343 24.8466L15.0253 20.1567H10.1428Z" fill="#4352B8"/>
<path fill-rule="evenodd" clip-rule="evenodd" d="M1.3965 0C0.63 0 0 0.745402 0 1.65852V18.5108C0 19.4177 0.63 20.1631 1.3965 20.1631H15.0307L9.56025 0H1.3965Z" fill="#4285F4"/>
<path d="M9.28725 13.9762H7.82775L7.245 12.1872H4.5885L4.03725 13.9762H2.6145L5.208 6.10596H6.63075L9.28725 13.9762ZM6.8145 10.8641L5.89575 7.94463L4.998 10.8641H6.8145Z" fill="#F5F5F5"/>
</g>
</svg>
