<svg id="Layer_1" enable-background="new 0 0 512 512" viewBox="0 0 512 512" xmlns="http://www.w3.org/2000/svg"><path d="m153.755 237.285h103.69v14.01h-103.69zm344.24-230.28h-402.66c-3.87 0-7 3.13-7 7v40.66c2.29-.33 4.63-.49 7-.49s4.71.16 7 .49v-33.66h388.66v216.28h-68.57v14.01h75.57c3.87 0 7-3.14 7-7v-230.29c0-3.87-3.13-7-7-7zm-402.66 134.33c20.18 0 36.59-16.4 36.59-36.57s-16.41-36.59-36.59-36.59c-20.17 0-36.57 16.42-36.57 36.59s16.4 36.57 36.57 36.57zm-44.39 176.12h88.81v-114.86c0-3.87 3.13-7 7-7h35.06c3.1 0 5.62-1.26 7.49-3.72l38.9-51.15c2.95-3.87 4.21-8.69 3.55-13.56s-3.16-9.17-7.03-12.11c-3.88-2.96-8.69-4.22-13.56-3.56-4.87.67-9.17 3.17-12.13 7.04l-25.79 33.9c-1.32 1.74-3.39 2.76-5.57 2.76h-20.92l-51.42.14-50.99.14c-21.31 2.49-37.34 20.45-37.34 41.93v126.28c0 10.12 8.21 18.34 18.31 18.34 4.22 0 8.34-1.5 11.62-4.2v-133.19c0-3.87 3.14-7 7-7 3.87 0 7.01 3.13 7.01 7v112.82zm235.5-15.28h-9.84c-2.84 0-5.16-2.3-5.16-5.13v-97.77c0-2.78 2.37-5.13 5.16-5.13h126.68c2.78 0 5.13 2.35 5.13 5.13v97.77c0 2.83-2.3 5.13-5.13 5.13h-72.9c-1.86 0-3.64.74-4.96 2.05l-31.98 32v-27.05c0-3.87-3.13-7-7-7zm4.93-74.81c0 3.87 3.14 7 7 7h83.14c3.87 0 7-3.13 7-7 0-3.86-3.13-7-7-7h-83.14c-3.86 0-7 3.14-7 7zm0 41.62c0 3.86 3.14 7 7 7h83.14c3.87 0 7-3.14 7-7 0-3.87-3.13-7.01-7-7.01h-83.14c-3.86 0-7 3.14-7 7.01zm-153.86 174.55h-29.88c-16.94 0-30.73 13.79-30.73 30.73v30.73h91.36v-30.73c0-16.94-13.79-30.73-30.75-30.73zm-14.94-73.73c-16.46 0-29.85 13.41-29.85 29.88 0 16.46 13.39 29.85 29.85 29.85 16.47 0 29.87-13.39 29.87-29.85 0-16.47-13.4-29.88-29.87-29.88zm-43.85 29.88c0-24.2 19.67-43.88 43.85-43.88 6.09 0 11.9 1.25 17.18 3.5v-27.85h-88.81v137.37h12.29c2.08-17.13 13.9-31.31 29.74-36.82-8.75-8.02-14.25-19.54-14.25-32.32zm167.64 43.85h-29.88c-16.96 0-30.76 13.79-30.76 30.73v30.73h91.08.28v-30.73c0-1.08-.06-2.14-.17-3.19-1.59-15.45-14.69-27.54-30.55-27.54zm-14.94-73.73c-16.48 0-29.88 13.41-29.88 29.88 0 16.46 13.4 29.85 29.88 29.85 16.46 0 29.85-13.39 29.85-29.85 0-16.47-13.39-29.88-29.85-29.88zm120.02 73.73h-29.91c-15.85 0-28.94 12.07-30.56 27.49-.11 1.07-.17 2.15-.17 3.24v30.73h.29 91.07v-30.73c0-16.94-13.78-30.73-30.72-30.73zm-44.82-43.85c0 16.46 13.4 29.85 29.88 29.85 16.46 0 29.85-13.39 29.85-29.85 0-16.47-13.39-29.88-29.85-29.88-16.48 0-29.88 13.41-29.88 29.88zm153.64 43.85h-29.88c-16.94 0-30.72 13.79-30.72 30.73v30.73h91.33v-30.73c0-16.94-13.79-30.73-30.73-30.73zm14.91-43.85c0-16.47-13.39-29.88-29.85-29.88-16.47 0-29.88 13.41-29.88 29.88 0 16.46 13.41 29.85 29.88 29.85 16.46 0 29.85-13.39 29.85-29.85zm-162.113-340.185h148.478c3.867 0 7.002-3.135 7.002-7.001s-3.135-7.001-7.002-7.001h-148.478c-3.867 0-7.002 3.135-7.002 7.001s3.134 7.001 7.002 7.001zm0 33.137h148.478c3.867 0 7.002-3.135 7.002-7.001s-3.135-7.001-7.002-7.001h-148.478c-3.867 0-7.002 3.135-7.002 7.001s3.134 7.001 7.002 7.001zm0 33.137h148.478c3.867 0 7.002-3.135 7.002-7.002s-3.135-7.001-7.002-7.001h-148.478c-3.867 0-7.002 3.135-7.002 7.001s3.134 7.002 7.002 7.002zm0 33.137h148.478c3.867 0 7.002-3.135 7.002-7.002s-3.135-7.002-7.002-7.002h-148.478c-3.867 0-7.002 3.135-7.002 7.002s3.134 7.002 7.002 7.002zm-51.025-99.411h13.805c3.867 0 7.002-3.135 7.002-7.001s-3.135-7.001-7.002-7.001h-13.805c-3.867 0-7.002 3.135-7.002 7.001s3.135 7.001 7.002 7.001zm0 33.137h13.805c3.867 0 7.002-3.135 7.002-7.001s-3.135-7.001-7.002-7.001h-13.805c-3.867 0-7.002 3.135-7.002 7.001s3.135 7.001 7.002 7.001zm0 33.137h13.805c3.867 0 7.002-3.135 7.002-7.002s-3.135-7.001-7.002-7.001h-13.805c-3.867 0-7.002 3.135-7.002 7.001s3.135 7.002 7.002 7.002zm0 33.137h13.805c3.867 0 7.002-3.135 7.002-7.002s-3.135-7.002-7.002-7.002h-13.805c-3.867 0-7.002 3.135-7.002 7.002s3.135 7.002 7.002 7.002z"/></svg>