<svg id="Layer_1" viewBox="0 0 512 512" xmlns="http://www.w3.org/2000/svg" data-name="Layer 1"><path d="m197.913 440h-158.912c10.054-35.013 42.386-59.76 79.409-59.78.016 0 .032.001.048.001s.031-.001.047-.001c37.022.021 69.353 24.767 79.407 59.78zm-79.454-156.58c-24.073 0-43.657 19.585-43.657 43.657s19.558 43.63 43.61 43.656c.015 0 .031-.001.047-.001s.031.001.048.001c24.051-.026 43.61-19.599 43.61-43.656s-19.584-43.657-43.656-43.657zm351.598 168.182h-18.784s-.007 0-.01 0c-.004 0-.008 0-.011 0h-151.045c-.007 0-.015 0-.022 0h-88.4s-.007 0-.01 0c-.004 0-.008 0-.011 0h-150.98c-.007 0-.015 0-.022 0h-18.818c-6.503 0-11.794 5.291-11.794 11.793v25.929c0 .908.768 1.675 1.676 1.675h448.349c.908 0 1.676-.767 1.676-1.675v-25.929c0-6.503-5.291-11.793-11.794-11.793zm-397.175-355.264c18.871 0 34.224-15.352 34.224-34.223s-15.353-34.223-34.224-34.223-34.223 15.353-34.223 34.223 15.353 34.223 34.223 34.223zm-36.701 178.466h73.403c3.325 0 6.03-2.705 6.03-6.03v-79.169l-16.483 8.546c-3.313 1.718-7.026 2.591-10.773 2.591-2.503 0-5.021-.39-7.443-1.178-6.008-1.954-10.83-6.056-13.577-11.551-2.466-4.93-3.195-10.528-2.057-15.763.589-2.699 3.252-4.405 5.949-3.823 2.698.587 4.409 3.25 3.822 5.949-.665 3.057-.24 6.226 1.229 9.165 1.541 3.081 4.285 5.395 7.726 6.514 3.521 1.145 7.356.86 10.522-.782l23.216-12.036 58.702-30.435c8.214-4.258 8.792-12.14 5.721-18.062-3.144-6.063-9.993-10.275-18.203-6.016l-47.855 24.811-1.273-6.564c-3.893-20.068-21.536-34.633-41.953-34.633-23.562 0-42.731 19.169-42.731 42.732v119.704c0 3.325 2.705 6.03 6.03 6.03zm219.819 78.746h.055c24.059-.029 43.625-19.61 43.625-43.677s-19.594-43.679-43.679-43.679-43.677 19.594-43.677 43.679 19.563 43.647 43.623 43.677h.054zm137.505 17.144c.016 0 .031.001.048.001 24.063-.026 43.631-19.609 43.631-43.678s-19.593-43.679-43.678-43.679-43.679 19.594-43.679 43.679 19.569 43.651 43.631 43.678c.016 0 .031-.001.047-.001zm88.346-316.224v130.368c0 18.456-15.015 33.47-33.471 33.47h-252.563c-18.456 0-33.471-15.015-33.471-33.47v-19.461l18.703-9.697c11.542-5.984 14.539-17.043 11.94-26.56l52.32-61.174c1.795-2.099 1.549-5.255-.55-7.05-2.097-1.792-5.253-1.549-7.05.55l-49.697 58.107c-5.794-7.018-15.296-10.945-25.667-7.035v-58.048c0-18.456 15.015-33.47 33.471-33.47h252.562c18.456 0 33.471 15.015 33.471 33.47zm-214.036-.397c0 2.761 2.238 5 5 5h72.876c2.762 0 5-2.239 5-5s-2.238-5-5-5h-72.876c-2.762 0-5 2.239-5 5zm-4.413 43.721c0 2.761 2.238 5 5 5h144.459c2.762 0 5-2.239 5-5s-2.238-5-5-5h-144.459c-2.762 0-5 2.239-5 5zm149.459 38.72h-29.22c-2.762 0-5 2.239-5 5s2.238 5 5 5h29.22c2.762 0 5-2.239 5-5s-2.238-5-5-5zm-160.369 5.001c0 2.761 2.238 5 5 5h92.7c2.762 0 5-2.239 5-5s-2.238-5-5-5h-92.7c-2.762 0-5 2.239-5 5zm18.947 43.72c0-2.761-2.238-5-5-5h-30.841c-2.762 0-5 2.239-5 5s2.238 5 5 5h30.841c2.762 0 5-2.239 5-5zm147.31.001c0-2.761-2.238-5-5-5h-112.004c-2.762 0-5 2.239-5 5s2.238 5 5 5h112.004c2.762 0 5-2.239 5-5zm0-131.164c0-2.761-2.238-5-5-5h-31.731c-2.762 0-5 2.239-5 5s2.238 5 5 5h31.731c2.762 0 5-2.239 5-5zm-104.74 385.928h158.992c-10.055-35.035-42.403-59.797-79.448-59.819-.016 0-.031.001-.047.001s-.032-.001-.048-.001c-37.046.021-69.396 24.783-79.45 59.819zm-126.324-40.879c10.459 11.322 18.216 25.258 22.115 40.879h92.325c3.903-15.645 11.674-29.602 22.154-40.936-15.447-22.622-40.628-36.008-68.222-36.026-.019 0-.036.001-.054.001-.019 0-.036-.001-.055-.001-27.622.017-52.82 13.426-68.262 36.084z"/></svg>